# xmcd
#
# Track frame offsets:
#	150
#	11490
#	30822
#	43675
#	59902
#	70567
#	85317
#	102685
#	114295
#	127722
#	142532
#	159102
#
# Disc length: 2332 seconds
#
# Revision: 4
# Processed by: cddbd v1.5.2PL0 Copyright (c) Steve Scherf et al.
# Submitted via: audiograbber 1.83.01
#
DISCID=88091a0c
DTITLE=Various Artist - Bluegrass Spirit
DYEAR=1996
DGENRE=Bluegrass Gospel
TTITLE0=Ricky Skaggs - Hallelujah I'm Ready
TTITLE1=Laurie Lewis - The Touch Of The Master's Hand
TTITLE2=Del McCoury - Before The Fire Comes Down
TTITLE3=Tony Trischka - Precious Child
TTITLE4=Lynn Morris - I Can Call Jesus
TTITLE5=IIIrd Tyme Out - Swing Low, Sweet Chariot
TTITLE6=James King - Message For Peace
TTITLE7=Nashville Bluegrass Band - I'll Be Rested
TTITLE8=Claire Lynch - Children Of Abraham
TTITLE9=Johnson Mountain Boys - Working On A Building
TTITLE10=Jim and Jesse McReynolds with Mac Wiseman - The Little White Church
TTITLE11=Dry Branch Fire Squad - Mount Zion's Lofty Heights
EXTD=
EXTT0=
EXTT1=
EXTT2=
EXTT3=
EXTT4=
EXTT5=
EXTT6=
EXTT7=
EXTT8=
EXTT9=
EXTT10=
EXTT11=
PLAYORDER=
